<?xml version="1.0" encoding="UTF-8"?>
<svg version="1.1" xmlns="http://www.w3.org/2000/svg" width="1128" height="1118">
<path d="M0 0 C372.24 0 744.48 0 1128 0 C1128 368.94 1128 737.88 1128 1118 C755.76 1118 383.52 1118 0 1118 C0 749.06 0 380.12 0 0 Z " fill="#1D2D25" transform="translate(0,0)"/>
<path d="M0 0 C4.876013 1.81419025 9.24088048 4.36424606 13.72265625 6.98828125 C14.73408691 7.5706958 15.74551758 8.15311035 16.78759766 8.75317383 C18.88696234 9.9624589 20.9842799 11.17530444 23.07958984 12.39160156 C26.84485625 14.57234073 30.62716895 16.7221627 34.41064453 18.87109375 C42.10307476 23.24468757 49.75525759 27.68193486 57.37231445 32.18530273 C64.91411997 36.63702048 72.50752345 40.99874798 80.09692383 45.36865234 C87.42512836 49.59075447 94.73565988 53.84177381 102.03515625 58.11328125 C111.30570631 63.53551887 120.61952483 68.87902227 129.95062256 74.1960144 C139.02281035 79.36664403 148.05587974 84.60089542 157.06665039 89.87792969 C165.98390487 95.09193654 174.95075072 100.21693628 183.93164062 105.3203125 C186.08477813 106.54592494 188.22311807 107.79799537 190.34387207 109.0788269 C192.99584508 110.62015809 195.60884619 111.75174373 198.49072266 112.79519653 C203.43372456 114.78265306 207.78063013 116.94875627 211.16015625 121.17578125 C214.33304418 129.69924768 213.27372881 139.47342199 213.0390625 148.40234375 C213.02978436 151.07878143 213.02718531 153.75439595 213.03343201 156.43075562 C213.03359957 162.73630548 212.94761172 169.03755256 212.82986253 175.34188306 C212.69996445 182.52441457 212.66731144 189.70638881 212.64241517 196.88993192 C212.5890907 211.65354321 212.41497536 226.41423821 212.16015625 241.17578125 C215.56665219 239.27345922 218.97251091 237.37000157 222.37782288 235.46556091 C224.09551166 234.50522929 225.81368075 233.54575692 227.53186035 232.58630371 C233.59043382 229.19727186 239.62680723 225.77977288 245.59765625 222.23828125 C246.29391617 221.82547409 246.99017609 221.41266693 247.70753479 220.98735046 C248.34158737 220.61125137 248.97563995 220.23515228 249.62890625 219.84765625 C255.25883641 216.51576122 260.92941381 213.25442168 266.59765625 209.98828125 C267.69182861 209.35752686 268.78600098 208.72677246 269.91333008 208.0769043 C275.11963911 205.07674176 280.32744237 202.07919779 285.53694153 199.08457947 C287.31144699 198.064277 289.08559362 197.04335349 290.85961914 196.0222168 C293.08332632 194.74244804 295.30773274 193.46389321 297.53295898 192.18676758 C298.54688721 191.60306396 299.56081543 191.01936035 300.60546875 190.41796875 C301.55969727 189.86979492 302.51392578 189.32162109 303.49707031 188.75683594 C306.56356074 186.93628295 309.51900011 184.97956998 312.43701172 182.93017578 C314.75170605 181.91680011 315.82001291 182.31216373 318.16015625 183.17578125 C320.78177846 184.52479985 323.34618891 185.91192581 325.91015625 187.36328125 C326.69600098 187.80397949 327.4818457 188.24467773 328.29150391 188.69873047 C335.76637585 192.91104919 343.17089977 197.24380244 350.57373047 201.58105469 C358.36544822 206.14259595 366.19141166 210.64200976 374.03515625 215.11328125 C384.32247869 220.97833283 394.59012126 226.8761398 404.84301758 232.80126953 C411.62420331 236.71827124 418.41840269 240.61151201 425.22265625 244.48828125 C431.97256542 248.33608301 438.68886286 252.23469564 445.37744141 256.18798828 C451.76033579 259.95453086 458.17669797 263.662072 464.59765625 267.36328125 C465.70020752 267.9989502 466.80275879 268.63461914 467.9387207 269.28955078 C473.5921585 272.54749176 479.24806743 275.80108826 484.90625 279.05078125 C487.11609594 280.32124848 489.32573387 281.59207758 491.53515625 282.86328125 C492.60572266 283.47921143 493.67628906 284.0951416 494.77929688 284.72973633 C502.61481169 289.25147134 510.38856834 293.86891275 518.10888672 298.5847168 C518.8670166 299.04531494 519.62514648 299.50591309 520.40625 299.98046875 C521.06294678 300.38249512 521.71964355 300.78452148 522.39624023 301.19873047 C524.30237223 302.32488193 524.30237223 302.32488193 527.16015625 303.17578125 C527.16015625 343.43578125 527.16015625 383.69578125 527.16015625 425.17578125 C522.75576227 423.70764992 519.74249394 422.52768152 515.88671875 420.234375 C514.90517822 419.65526367 513.9236377 419.07615234 512.91235352 418.47949219 C511.88037842 417.86364258 510.84840332 417.24779297 509.78515625 416.61328125 C507.62037106 415.33495582 505.45500573 414.05761231 503.2890625 412.78125 C502.23734863 412.16040527 501.18563477 411.53956055 500.10205078 410.89990234 C496.33571871 408.69261296 492.53767623 406.54746694 488.72265625 404.42578125 C482.48958868 400.95282999 476.33908899 397.35192806 470.19970703 393.71630859 C464.58847515 390.40314734 458.91533515 387.23360848 453.16015625 384.17578125 C453.16015625 383.51578125 453.16015625 382.85578125 453.16015625 382.17578125 C452.43828125 382.07265625 451.71640625 381.96953125 450.97265625 381.86328125 C447.86189791 381.10287366 445.87488083 379.86152354 443.16015625 378.17578125 C441.40854239 377.15620772 439.65448328 376.14082744 437.8984375 375.12890625 C436.87516357 374.53891846 435.85188965 373.94893066 434.79760742 373.34106445 C433.70037354 372.709021 432.60313965 372.07697754 431.47265625 371.42578125 C430.31418502 370.75809822 429.15573819 370.09037285 427.99731445 369.42260742 C426.19698027 368.3848244 424.39662642 367.34707563 422.59617615 366.30949402 C418.53033601 363.96626764 414.46593484 361.62056295 410.40234375 359.2734375 C400.31372495 353.4470994 390.21951333 347.63171171 380.09765625 341.86328125 C369.19784243 335.64709308 358.39010494 329.28190423 347.6015625 322.875 C346.63726318 322.30322021 345.67296387 321.73144043 344.67944336 321.14233398 C342.81330965 320.03556164 340.94816144 318.92712512 339.08422852 317.81665039 C327.56683356 310.54661349 327.56683356 310.54661349 315.16015625 305.17578125 C312.3164698 306.36659433 309.95990886 307.58930359 307.34765625 309.17578125 C306.57139893 309.62711426 305.7951416 310.07844727 304.99536133 310.54345703 C303.28912307 311.53827503 301.58775102 312.54147315 299.890625 313.55175781 C297.06345863 315.23329489 294.22326858 316.89070102 291.37890625 318.54296875 C287.30541175 320.91039025 283.23693713 323.28609892 279.171875 325.66796875 C273.68907355 328.87480774 268.18064909 332.03438429 262.66015625 335.17578125 C248.09859589 343.46981204 233.60442782 351.88581838 219.22265625 360.48828125 C218.60793457 360.85526123 217.99321289 361.22224121 217.35986328 361.6003418 C214.6044192 363.17924783 214.6044192 363.17924783 212.16015625 365.17578125 C212.79179688 365.52656738 213.4234375 365.87735352 214.07421875 366.23876953 C227.82463723 373.88422015 241.48911595 381.65324973 255.0625 389.609375 C261.41062191 393.32913008 267.78374667 397.00478778 274.16015625 400.67578125 C282.46840423 405.46030718 290.76009232 410.27160557 299.03515625 415.11328125 C307.67292303 420.16425148 316.34335354 425.15602529 325.03515625 430.11328125 C343.43798792 440.60945126 361.78965157 451.19198406 380.08032227 461.88256836 C388.93288095 467.05310886 397.81178521 472.17733098 406.69726562 477.29101562 C408.24704102 478.18336914 408.24704102 478.18336914 409.828125 479.09375 C410.73844482 479.61735107 411.64876465 480.14095215 412.58666992 480.68041992 C415.12559215 482.15569728 417.64598271 483.65877851 420.16015625 485.17578125 C418.89187899 488.98061302 417.72894456 489.28562943 414.2890625 491.22265625 C413.25330078 491.81240234 412.21753906 492.40214844 411.15039062 493.00976562 C410.01923828 493.64205078 408.88808594 494.27433594 407.72265625 494.92578125 C406.54176984 495.59473691 405.36143927 496.26467465 404.18164062 496.93554688 C401.72756669 498.33000018 399.27114221 499.72017438 396.81298828 501.10742188 C391.23936126 504.25745287 385.70158451 507.46956938 380.16015625 510.67578125 C377.99366062 511.92607767 375.8269933 513.17607663 373.66015625 514.42578125 C372.05140625 515.35390625 372.05140625 515.35390625 370.41015625 516.30078125 C256.66015625 581.92578125 256.66015625 581.92578125 253.40966797 583.80102539 C251.24458554 585.05013643 249.07954643 586.29932254 246.91455078 587.54858398 C241.47399919 590.68780434 236.03268409 593.82568688 230.58984375 596.9609375 C220.13809346 602.983255 209.6972251 609.02258382 199.28515625 615.11328125 C190.64733624 620.16416144 181.97695985 625.15602478 173.28515625 630.11328125 C164.1493941 635.32392026 155.02131468 640.54716145 145.91015625 645.80078125 C144.32618042 646.71162476 144.32618042 646.71162476 142.71020508 647.64086914 C137.2614176 650.78058594 131.83831746 653.95669925 126.4453125 657.19140625 C125.35831055 657.83899902 124.27130859 658.4865918 123.15136719 659.15380859 C121.0901367 660.38389776 119.03440676 661.62326987 116.98535156 662.87353516 C107.69766544 668.39991853 107.69766544 668.39991853 102.16015625 668.17578125 C99.45676211 666.96485442 97.29437234 665.78012579 94.84765625 664.17578125 C93.34378673 663.24133149 91.83848145 662.3091899 90.33203125 661.37890625 C89.09936523 660.60836914 89.09936523 660.60836914 87.84179688 659.82226562 C82.82691065 656.74320584 77.70408454 653.84951061 72.59765625 650.92578125 C64.14222652 646.06025005 55.70487496 641.16531858 47.28515625 636.23828125 C38.01758461 630.81778567 28.70655939 625.4763765 19.37875366 620.1605835 C8.16116128 613.76622246 -2.99613081 607.27146236 -14.14111328 600.75146484 C-18.9627909 597.93627511 -23.79771817 595.14404759 -28.63256836 592.3515625 C-32.92052596 589.87273479 -37.20059173 587.38113328 -41.47265625 584.875 C-51.89279081 578.76593567 -62.34865997 572.73919357 -72.90234375 566.86328125 C-81.98707076 561.80377853 -91.01951751 556.68704392 -99.83984375 551.17578125 C-100.87742828 550.71383362 -101.91501282 550.25188599 -102.98403931 549.77593994 C-106.23039126 546.82019475 -106.28965266 546.30800492 -106.56137085 542.13909912 C-106.57879241 539.99477951 -106.56274834 537.85003856 -106.52099609 535.70605469 C-106.52187225 534.53504211 -106.52274841 533.36402954 -106.52365112 532.15753174 C-106.51946736 528.28273059 -106.47277239 524.40965539 -106.42578125 520.53515625 C-106.41126105 517.85045332 -106.40575547 515.1657523 -106.40005493 512.48101807 C-106.38141094 506.134312 -106.33218114 499.78822654 -106.27195799 493.44179368 C-106.20487798 486.21580773 -106.17190031 478.98979204 -106.14178538 471.76357222 C-106.07908085 456.90063961 -105.97355549 442.0382514 -105.83984375 427.17578125 C-108.05169221 428.27122881 -110.26235261 429.36897114 -112.47241211 430.46801758 C-113.09088768 430.77403145 -113.70936325 431.08004532 -114.34658051 431.39533234 C-120.18227255 434.30136813 -125.79975893 437.53148619 -131.40234375 440.86328125 C-133.503426 442.10107597 -135.60499707 443.33804129 -137.70703125 444.57421875 C-138.74182617 445.18362305 -139.77662109 445.79302734 -140.84277344 446.42089844 C-145.21604475 448.981592 -149.6201122 451.48664609 -154.02734375 453.98828125 C-161.97256671 458.50548763 -169.86437344 463.10920013 -177.74285889 467.74136353 C-181.4456109 469.91691526 -185.15212478 472.08605346 -188.85861206 474.25523376 C-192.28045934 476.2587373 -195.69451733 478.27489848 -199.10546875 480.296875 C-200.53725341 481.13237987 -201.96949254 481.96710679 -203.40234375 482.80078125 C-204.02020752 483.17291748 -204.63807129 483.54505371 -205.2746582 483.9284668 C-209.30937894 486.24789337 -209.30937894 486.24789337 -211.70581055 485.92211914 C-214.26847463 485.02587568 -216.48894519 483.84100066 -218.85546875 482.5078125 C-219.84667725 481.9516626 -220.83788574 481.3955127 -221.85913086 480.82250977 C-223.45833374 479.91456665 -223.45833374 479.91456665 -225.08984375 478.98828125 C-226.20302979 478.36042725 -227.31621582 477.73257324 -228.46313477 477.08569336 C-237.94245046 471.72275729 -247.35412833 466.24583695 -256.75 460.73828125 C-263.05554794 457.04364815 -269.38278811 453.38725444 -275.71484375 449.73828125 C-276.79499756 449.11574463 -277.87515137 448.49320801 -278.98803711 447.85180664 C-281.17780709 446.59001299 -283.3676673 445.32837591 -285.55761719 444.06689453 C-290.98644317 440.93897977 -296.41303656 437.80719677 -301.83984375 434.67578125 C-304.00649958 433.42576246 -306.17316625 432.17576247 -308.33984375 430.92578125 C-321.33984375 423.42578125 -334.33984375 415.92578125 -347.33984375 408.42578125 C-348.41250488 407.80695068 -349.48516602 407.18812012 -350.59033203 406.55053711 C-352.75541446 405.30142607 -354.92045357 404.05223996 -357.08544922 402.80297852 C-362.52600081 399.66375816 -367.96731591 396.52587562 -373.41015625 393.390625 C-384.33872233 387.09377049 -395.25731382 380.78052305 -406.15234375 374.42578125 C-407.65595459 373.54877563 -407.65595459 373.54877563 -409.18994141 372.65405273 C-414.41612756 369.60205756 -414.41612756 369.60205756 -416.83984375 368.17578125 C-417.70177338 367.89206161 -418.563703 367.60834198 -419.45175171 367.31602478 C-421.83984375 365.17578125 -421.83984375 365.17578125 -422.29183865 362.93943596 C-422.45971505 359.7973569 -422.4571124 356.69051379 -422.4074707 353.54418945 C-422.40820084 352.34406219 -422.40893097 351.14393494 -422.40968323 349.90744019 C-422.40679426 346.61578697 -422.38170489 343.32569741 -422.34681344 340.03432107 C-422.31557815 336.5950456 -422.31262148 333.15574979 -422.3066864 329.71635437 C-422.29113947 323.20325663 -422.2501001 316.69057802 -422.19993895 310.17766494 C-422.14407144 302.7630436 -422.11656562 295.34840234 -422.09146178 287.93362296 C-422.0391845 272.68076623 -421.95122639 257.42832776 -421.83984375 242.17578125 C-421.14503403 241.7880101 -420.4502243 241.40023895 -419.73435974 241.00071716 C-416.51762374 239.2046669 -413.3017781 237.40702796 -410.0859375 235.609375 C-408.99357788 234.99976929 -407.90121826 234.39016357 -406.77575684 233.76208496 C-399.44126126 229.6602456 -392.15452339 225.48388904 -384.90234375 221.23828125 C-383.79624756 220.59117187 -382.69015137 219.9440625 -381.55053711 219.27734375 C-380.68565674 218.76945313 -379.82077637 218.2615625 -378.9296875 217.73828125 C-372.6241391 214.04364788 -366.29686841 210.38730885 -359.96484375 206.73828125 C-358.88614014 206.11646973 -357.80743652 205.4946582 -356.69604492 204.85400391 C-352.31407603 202.32866874 -347.93143598 199.8044995 -343.54882812 197.28027344 C-331.96302517 190.60621761 -320.38438048 183.92102127 -308.83984375 177.17578125 C-290.93136749 166.71420466 -272.95360474 156.37484612 -254.93768311 146.09970093 C-245.85188497 140.91593 -236.80163334 135.67384104 -227.77246094 130.39208984 C-217.24873056 124.23785136 -206.68588455 118.15199038 -196.12207031 112.06689453 C-190.69324433 108.93897977 -185.26665094 105.80719677 -179.83984375 102.67578125 C-177.67318792 101.42576246 -175.50652125 100.17576247 -173.33984375 98.92578125 C-172.26734375 98.30703125 -171.19484375 97.68828125 -170.08984375 97.05078125 C-56.33984375 31.42578125 -56.33984375 31.42578125 -53.08544922 29.54833984 C-50.93332245 28.30666598 -48.78130302 27.06480603 -46.62939453 25.82275391 C-41.58953398 22.91411302 -36.54866883 20.00726227 -31.50384521 17.10723877 C-29.72234797 16.0830246 -27.94120053 15.05820474 -26.16015625 14.03320312 C-23.9290775 12.7494475 -21.69734802 11.46682186 -19.46484375 10.18554688 C-18.45164062 9.60224609 -17.4384375 9.01894531 -16.39453125 8.41796875 C-15.43772461 7.86979492 -14.48091797 7.32162109 -13.49511719 6.75683594 C-11.07998893 5.31877317 -8.78744665 3.77535449 -6.47265625 2.18359375 C-3.98417875 0.64779861 -2.99222768 0.18521354 0 0 Z " fill="#FDFDFD" transform="translate(514.83984375,225.82421875)"/>
<path d="M0 0 C2.62162221 1.3490186 5.18603266 2.73614456 7.75 4.1875 C8.53584473 4.62819824 9.32168945 5.06889648 10.13134766 5.52294922 C17.6062196 9.73526794 25.01074352 14.06802119 32.41357422 18.40527344 C40.20529197 22.9668147 48.03125541 27.46622851 55.875 31.9375 C66.16232244 37.80255158 76.42996501 43.70035855 86.68286133 49.62548828 C93.46404706 53.54248999 100.25824644 57.43573076 107.0625 61.3125 C113.81240917 65.16030176 120.52870661 69.05891439 127.21728516 73.01220703 C133.60017954 76.77874961 140.01654172 80.48629075 146.4375 84.1875 C147.54005127 84.82316895 148.64260254 85.45883789 149.77856445 86.11376953 C155.43200225 89.37171051 161.08791118 92.62530701 166.74609375 95.875 C168.95593969 97.14546723 171.16557762 98.41629633 173.375 99.6875 C174.44556641 100.30343018 175.51613281 100.91936035 176.61914062 101.55395508 C184.45465544 106.07569009 192.22841209 110.6931315 199.94873047 115.40893555 C200.70686035 115.86953369 201.46499023 116.33013184 202.24609375 116.8046875 C202.90279053 117.20671387 203.5594873 117.60874023 204.23608398 118.02294922 C206.14221598 119.14910068 206.14221598 119.14910068 209 120 C209 160.26 209 200.52 209 242 C204.59560602 240.53186867 201.58233769 239.35190027 197.7265625 237.05859375 C196.74502197 236.47948242 195.76348145 235.90037109 194.75219727 235.30371094 C193.72022217 234.68786133 192.68824707 234.07201172 191.625 233.4375 C189.46021481 232.15917457 187.29484948 230.88183106 185.12890625 229.60546875 C184.07719238 228.98462402 183.02547852 228.3637793 181.94189453 227.72412109 C178.17556246 225.51683171 174.37751998 223.37168569 170.5625 221.25 C164.32943243 217.77704874 158.17893274 214.17614681 152.03955078 210.54052734 C146.4283189 207.22736609 140.7551789 204.05782723 135 201 C135 200.34 135 199.68 135 199 C134.278125 198.896875 133.55625 198.79375 132.8125 198.6875 C129.70174166 197.92709241 127.71472458 196.68574229 125 195 C123.24838614 193.98042647 121.49432703 192.96504619 119.73828125 191.953125 C118.71500732 191.36313721 117.6917334 190.77314941 116.63745117 190.1652832 C115.54021729 189.53323975 114.4429834 188.90119629 113.3125 188.25 C112.15402877 187.58231697 110.99558194 186.9145916 109.8371582 186.24682617 C108.03682402 185.20904315 106.23647017 184.17129438 104.4360199 183.13371277 C100.37017976 180.79048639 96.30577859 178.4447817 92.2421875 176.09765625 C82.1535687 170.27131815 72.05935708 164.45593046 61.9375 158.6875 C51.03768618 152.47131183 40.22994869 146.10612298 29.44140625 139.69921875 C28.47710693 139.12743896 27.51280762 138.55565918 26.51928711 137.96655273 C24.6531534 136.85978039 22.78800519 135.75134387 20.92407227 134.64086914 C9.40667731 127.37083224 9.40667731 127.37083224 -3 122 C-5.84368645 123.19081308 -8.20024739 124.41352234 -10.8125 126 C-11.58875732 126.45133301 -12.36501465 126.90266602 -13.16479492 127.36767578 C-14.87103318 128.36249378 -16.57240523 129.3656919 -18.26953125 130.37597656 C-21.09669762 132.05751364 -23.93688767 133.71491977 -26.78125 135.3671875 C-30.8547445 137.734609 -34.92321912 140.11031767 -38.98828125 142.4921875 C-44.4710827 145.69902649 -49.97950716 148.85860304 -55.5 152 C-70.06156036 160.29403079 -84.55572843 168.71003713 -98.9375 177.3125 C-99.55222168 177.67947998 -100.16694336 178.04645996 -100.80029297 178.42456055 C-103.55573705 180.00346658 -103.55573705 180.00346658 -106 182 C-105.36835937 182.35078613 -104.73671875 182.70157227 -104.0859375 183.06298828 C-90.33551902 190.7084389 -76.6710403 198.47746848 -63.09765625 206.43359375 C-56.74953434 210.15334883 -50.37640958 213.82900653 -44 217.5 C-35.69175202 222.28452593 -27.40006393 227.09582432 -19.125 231.9375 C-10.48723322 236.98847023 -1.81680271 241.98024404 6.875 246.9375 C25.27783167 257.43367001 43.62949532 268.01620281 61.92016602 278.70678711 C70.7727247 283.87732761 79.65162896 289.00154973 88.53710938 294.11523438 C90.08688477 295.00758789 90.08688477 295.00758789 91.66796875 295.91796875 C92.57828857 296.44156982 93.4886084 296.9651709 94.42651367 297.50463867 C96.9654359 298.97991603 99.48582646 300.48299726 102 302 C100.73172274 305.80483177 99.56878831 306.10984818 96.12890625 308.046875 C95.09314453 308.63662109 94.05738281 309.22636719 92.99023438 309.83398438 C91.85908203 310.46626953 90.72792969 311.09855469 89.5625 311.75 C88.38161359 312.41895566 87.20128302 313.0888934 86.02148438 313.75976562 C83.56741044 315.15421893 81.11098596 316.54439313 78.65283203 317.93164062 C73.07920501 321.08167162 67.54142826 324.29378813 62 327.5 C59.83350437 328.75029642 57.66683705 330.00029538 55.5 331.25 C54.4275 331.86875 53.355 332.4875 52.25 333.125 C-61.50000001 398.75 -61.50000001 398.75 -64.75048828 400.62524414 C-66.91557071 401.87435518 -69.08060982 403.12354129 -71.24560547 404.37280273 C-76.68615706 407.51202309 -82.12747216 410.64990563 -87.5703125 413.78515625 C-98.02206279 419.80747375 -108.46293115 425.84680257 -118.875 431.9375 C-127.51282001 436.98838019 -136.1831964 441.98024353 -144.875 446.9375 C-154.01076215 452.14813901 -163.13884157 457.3713802 -172.25 462.625 C-173.30598389 463.232229 -174.36196777 463.83945801 -175.44995117 464.46508789 C-180.89873865 467.60480469 -186.32183879 470.780918 -191.71484375 474.015625 C-192.8018457 474.66321777 -193.88884766 475.31081055 -195.00878906 475.97802734 C-197.07001955 477.20811651 -199.12574949 478.44748862 -201.17480469 479.69775391 C-210.46249081 485.22413728 -210.46249081 485.22413728 -216 485 C-218.70339414 483.78907317 -220.86578391 482.60434454 -223.3125 481 C-224.81636952 480.06555024 -226.3216748 479.13340865 -227.828125 478.203125 C-228.64990234 477.68943359 -229.47167969 477.17574219 -230.31835938 476.64648438 C-235.3332456 473.56742459 -240.45607171 470.67372936 -245.5625 467.75 C-254.01792973 462.8844688 -262.45528129 457.98953733 -270.875 453.0625 C-280.14257164 447.64200442 -289.45359686 442.30059525 -298.78140259 436.98480225 C-309.99899497 430.59044121 -321.15628706 424.09568111 -332.30126953 417.57568359 C-337.12294715 414.76049386 -341.95787442 411.96826634 -346.79272461 409.17578125 C-351.08068221 406.69695354 -355.36074798 404.20535203 -359.6328125 401.69921875 C-371.0968482 394.97814129 -382.62043575 388.38649524 -394.23193359 381.92333984 C-402.2588894 377.44433682 -410.16054415 372.79901825 -418 368 C-419.30936775 367.55976753 -419.30936775 367.55976753 -420.64518738 367.11064148 C-423 365 -423 365 -423.44991493 362.78112221 C-423.62005144 359.66354095 -423.61729214 356.58218371 -423.56762695 353.46020508 C-423.56872215 351.67464455 -423.56872215 351.67464455 -423.56983948 349.85301208 C-423.56695075 346.58840369 -423.54186058 343.32486398 -423.50696969 340.06046891 C-423.47573361 336.64922106 -423.47277767 333.23795266 -423.46684265 329.82658386 C-423.45129594 323.36660841 -423.4102569 316.90705556 -423.3600952 310.44726628 C-423.30422696 303.09310377 -423.27672169 295.73892118 -423.25161803 288.38459933 C-423.1993413 273.256164 -423.11138357 258.12812424 -423 243 C-419.20869126 244.47877618 -415.76306168 246.17501183 -412.23046875 248.203125 C-411.10688965 248.84644775 -409.98331055 249.48977051 -408.82568359 250.15258789 C-407.61288279 250.85159872 -406.40015681 251.55073939 -405.1875 252.25 C-403.92540022 252.9747148 -402.66319169 253.69924024 -401.40087891 254.42358398 C-392.55951696 259.50243557 -383.74634523 264.62939669 -374.94433594 269.77612305 C-359.33953101 278.90046286 -343.68807365 287.94195572 -327.9375 296.8125 C-320.81097152 300.82613294 -313.72268447 304.89257427 -306.68554688 309.06079102 C-300.29781078 312.83980093 -293.86941783 316.54678884 -287.4375 320.25 C-278.94347687 325.14152364 -270.46236444 330.053906 -262 335 C-253.36734769 340.04375639 -244.72114855 345.06354086 -236.0625 350.0625 C-234.99064453 350.68189453 -233.91878906 351.30128906 -232.81445312 351.93945312 C-230.8029182 353.09961193 -228.78825545 354.25437002 -226.77001953 355.40283203 C-224.98358708 356.43287267 -223.21208464 357.48947405 -221.46044922 358.57763672 C-220.30246826 359.27977295 -220.30246826 359.27977295 -219.12109375 359.99609375 C-218.46423584 360.40915771 -217.80737793 360.82222168 -217.13061523 361.24780273 C-213.27805975 362.60791772 -210.06807578 361.50552206 -206.48071289 359.80761719 C-205.6530542 359.30907227 -204.82539551 358.81052734 -203.97265625 358.296875 C-203.02737061 357.73524658 -202.08208496 357.17361816 -201.1081543 356.5949707 C-200.10308838 355.98613037 -199.09802246 355.37729004 -198.0625 354.75 C-195.90449883 353.4660132 -193.74562242 352.18349643 -191.5859375 350.90234375 C-190.48991211 350.24991699 -189.39388672 349.59749023 -188.26464844 348.92529297 C-183.27802153 345.98448084 -178.23591295 343.14550871 -173.1875 340.3125 C-163.86083856 335.06403052 -154.58380538 329.73598399 -145.33251953 324.35595703 C-142.09855442 322.47596517 -138.86236355 320.59982971 -135.62548828 318.72485352 C-134.02056162 317.79510179 -132.41605788 316.86461958 -130.81201172 315.93334961 C-127.13109305 313.79897368 -123.4433372 311.67993817 -119.73046875 309.6015625 C-119.07602783 309.23377686 -118.42158691 308.86599121 -117.74731445 308.48706055 C-115.99807267 307.50649066 -114.24526021 306.53229811 -112.4921875 305.55859375 C-109.90311707 304.24057548 -109.90311707 304.24057548 -109 302 C-109.98226562 301.64421875 -109.98226562 301.64421875 -110.984375 301.28125 C-114.89934544 299.61789469 -118.54368358 297.58078086 -122.25 295.5 C-123.04937988 295.05350098 -123.84875977 294.60700195 -124.67236328 294.14697266 C-130.46626637 290.89639993 -136.2011978 287.55421768 -141.91479492 284.16503906 C-148.75454961 280.11835757 -155.65733202 276.1835314 -162.5625 272.25 C-174.63273653 265.37284104 -186.65483679 258.41733715 -198.62915039 251.37402344 C-200.76058155 250.13875472 -202.914205 248.95810423 -205.078125 247.78125 C-208.32446287 245.8021991 -209.09177985 244.63288061 -210 241 C-210.66 241 -211.32 241 -212 241 C-212.37456067 225.39698746 -212.65628115 209.79519691 -212.82899475 194.1887989 C-212.91134092 186.94139047 -213.02348021 179.696782 -213.20703125 172.45117188 C-213.36703477 166.13205276 -213.46984613 159.81496098 -213.50541592 153.49387252 C-213.52620864 150.14746045 -213.58307846 146.81141112 -213.69168091 143.46600723 C-214.32598121 123.11257447 -214.32598121 123.11257447 -210.44586182 117.92028809 C-206.72169528 114.56878784 -202.59468188 112.52835523 -197.93910027 110.76419353 C-195.20209262 109.68554712 -192.75703599 108.19984701 -190.25 106.671875 C-188.50184887 105.69460202 -186.75183075 104.72066155 -185 103.75 C-176.91165096 99.22326268 -168.8724637 94.62297409 -160.875 89.9375 C-152.43872963 84.99626568 -143.97490289 80.10852142 -135.47387695 75.27954102 C-131.33471639 72.92369768 -127.21351593 70.54441769 -123.125 68.1015625 C-122.35406006 67.64168945 -121.58312012 67.18181641 -120.78881836 66.70800781 C-119.35680927 65.85059257 -117.92767718 64.98834408 -116.50219727 64.12011719 C-113.57775236 62.36891723 -111.04878585 61.0154932 -107.77734375 59.9765625 C-104.93010414 59.20237428 -104.93010414 59.20237428 -103.13989258 57.12402344 C-100.88078003 54.88166415 -98.77250432 53.55962657 -95.984375 52.0390625 C-94.99332764 51.49266113 -94.00228027 50.94625977 -92.98120117 50.38330078 C-91.38175659 49.51294189 -91.38175659 49.51294189 -89.75 48.625 C-87.46905029 47.36639717 -85.18912627 46.10593395 -82.91015625 44.84375 C-82.33022415 44.52310577 -81.75029205 44.20246155 -81.15278625 43.87210083 C-75.4463368 40.70980682 -69.81224479 37.42977429 -64.1875 34.125 C-57.80187867 30.37710214 -51.40695713 26.64820242 -44.97265625 22.984375 C-44.37776901 22.64557816 -43.78288177 22.30678131 -43.16996765 21.9577179 C-40.76898098 20.59110282 -38.36757951 19.2252351 -35.96444702 17.86239624 C-29.89759123 14.42094507 -23.85957925 10.94674054 -17.921875 7.28515625 C-16.99922852 6.71748535 -16.07658203 6.14981445 -15.12597656 5.56494141 C-13.42296194 4.50950301 -11.72651147 3.44336939 -10.03808594 2.36474609 C-8.92095215 1.67179443 -8.92095215 1.67179443 -7.78125 0.96484375 C-7.14251953 0.5587085 -6.50378906 0.15257324 -5.84570312 -0.26586914 C-3.45616854 -1.21630968 -2.38502858 -0.88454116 0 0 Z " fill="#FDFEFE" transform="translate(833,409)"/>
<path d="M0 0 C2.78881846 1.46064598 5.54474111 2.94697273 8.27416992 4.51660156 C9.38759766 5.15484863 10.50102539 5.7930957 11.64819336 6.45068359 C12.85300031 7.14573914 14.05775146 7.84089142 15.26245117 8.53613281 C16.51783789 9.25758031 17.77337409 9.97876775 19.02905273 10.69970703 C22.2561541 12.55366221 25.48091531 14.41164746 28.70501709 16.27081299 C30.48416043 17.29630152 32.26399166 18.32058153 34.04418945 19.34423828 C45.64122942 26.01283511 57.21629154 32.71733194 68.76245117 39.47363281 C77.60478623 44.64747095 86.50162292 49.71647305 95.42993164 54.74023438 C101.62497068 58.2312672 107.77474458 61.78834586 113.89331055 65.41137695 C123.60652945 71.1560847 133.4007496 76.76169784 143.17993164 82.39306641 C149.71661872 86.15826585 156.24988378 89.92940017 162.78320312 93.70043945 C167.82382132 96.60944343 172.86539981 99.51673429 177.91094971 102.41717529 C179.69244695 103.44138946 181.47359439 104.46620933 183.25463867 105.49121094 C185.48571742 106.77496657 187.7174469 108.0575922 189.94995117 109.33886719 C190.9631543 109.92216797 191.97635742 110.50546875 193.02026367 111.10644531 C193.97578125 111.6559082 194.93129883 112.20537109 195.91577148 112.77148438 C198.94222522 114.56646153 201.86685594 116.48603231 204.75415039 118.49658203 C207.2181456 119.64961814 208.87629445 119.64990317 211.57495117 119.34863281 C214.00364175 118.32886939 214.00364175 118.32886939 216.39916992 116.81347656 C217.33164551 116.25926025 218.26412109 115.70504395 219.22485352 115.1340332 C220.22726074 114.52422607 221.22966797 113.91441895 222.26245117 113.28613281 C224.43513683 111.9910372 226.60833122 110.69679473 228.78198242 109.40332031 C229.90427246 108.73139648 231.0265625 108.05947266 232.18286133 107.3671875 C237.57322583 104.1595055 243.01135964 101.03610585 248.44995117 97.91113281 C250.63235029 96.65350675 252.81464134 95.39569314 254.99682617 94.13769531 C258.28645407 92.24268982 261.57621046 90.34790751 264.8659668 88.453125 C267.05631571 87.19136429 269.24650146 85.92932027 271.43652344 84.66699219 C273.59541779 83.4227248 275.75475353 82.17922291 277.91455078 80.93652344 C283.44069901 77.75249169 288.95019674 74.54328633 294.43823242 71.29394531 C295.54215332 70.64240479 296.64607422 69.99086426 297.78344727 69.31958008 C299.89254387 68.07303477 301.9984931 66.82114456 304.10083008 65.56323242 C305.03975098 65.00901611 305.97867187 64.4547998 306.94604492 63.88378906 C307.77031982 63.39273682 308.59459473 62.90168457 309.44384766 62.39575195 C311.57495117 61.34863281 311.57495117 61.34863281 314.57495117 61.34863281 C314.57495117 101.27863281 314.57495117 141.20863281 314.57495117 182.34863281 C316.22495117 183.00863281 317.87495117 183.66863281 319.57495117 184.34863281 C321.32262421 185.28868066 323.05217843 186.26287463 324.76635742 187.26269531 C325.77891602 187.85050781 326.79147461 188.43832031 327.8347168 189.04394531 C328.92461914 189.68074219 330.01452148 190.31753906 331.13745117 190.97363281 C333.49207326 192.34227992 335.84806658 193.70856119 338.20385742 195.07519531 C338.81057281 195.42761292 339.41728821 195.78003052 340.04238892 196.14312744 C345.95513647 199.57566848 351.89058211 202.96786813 357.83007812 206.35385132 C378.13085372 217.92766519 398.35652968 229.63169217 418.57495117 241.34863281 C417.29698257 245.18253861 416.10044449 245.45500096 412.60620117 247.35253906 C411.56882812 247.92311035 410.53145508 248.49368164 409.46264648 249.08154297 C407.7857373 249.98718994 407.7857373 249.98718994 406.07495117 250.91113281 C403.76687553 252.1792382 401.45958484 253.44877331 399.15307617 254.71972656 C398.02192383 255.34089355 396.89077148 255.96206055 395.7253418 256.60205078 C391.71670342 258.82444685 387.76227933 261.1278356 383.82495117 263.47363281 C377.61166924 267.16466881 371.35588591 270.77390564 365.07495117 274.34863281 C358.71409481 277.97011712 352.37608979 281.62424071 346.07495117 285.34863281 C344.71434542 286.14693149 343.35366707 286.94510643 341.99291992 287.74316406 C339.61955215 289.13678637 337.25452955 290.54189094 334.89770508 291.96337891 C332.06950604 293.66906794 329.22936615 295.35341999 326.38745117 297.03613281 C325.50186523 297.57818359 324.6162793 298.12023437 323.70385742 298.67871094 C322.86338867 299.17177734 322.02291992 299.66484375 321.15698242 300.17285156 C320.04673706 300.83933716 320.04673706 300.83933716 318.9140625 301.51928711 C314.75223469 302.99488768 311.58218292 301.82586432 307.7043457 299.98852539 C306.71547363 299.41255615 305.72660156 298.83658691 304.70776367 298.24316406 C303.027229 297.27334595 303.027229 297.27334595 301.31274414 296.28393555 C300.10836985 295.57652182 298.90410836 294.86891603 297.69995117 294.16113281 C296.44276854 293.43124238 295.18511176 292.70216806 293.92700195 291.97387695 C290.73778146 290.12480032 287.55488673 288.26514185 284.37402344 286.4017334 C281.68856788 284.82978163 278.99884608 283.2651803 276.30932617 281.70019531 C272.39925703 279.42322536 268.49213314 277.14130501 264.58666992 274.85644531 C258.15927939 271.10032961 251.71233339 267.37846003 245.26245117 263.66113281 C244.16545898 263.02884766 243.0684668 262.3965625 241.93823242 261.74511719 C239.80366227 260.5149172 237.6690604 259.28477224 235.53442383 258.0546875 C231.33757999 255.63532232 227.14283247 253.21235823 222.94995117 250.78613281 C222.20285889 250.35389404 221.4557666 249.92165527 220.68603516 249.47631836 C216.41112241 247.00012196 212.14297406 244.51268123 207.87963867 242.01660156 C197.03662874 235.67018415 186.16019146 229.39584855 175.20947266 223.23706055 C167.39887804 218.83559434 159.65365187 214.32813972 151.91796875 209.79663086 C144.06146515 205.20050328 136.16946555 200.66953572 128.26245117 196.16113281 C118.97439089 190.86457487 109.7013933 185.54379122 100.45385742 180.17675781 C95.71496652 177.42699436 90.96775875 174.69175631 86.22045898 171.95654297 C76.69706709 166.46936156 67.18669964 160.96143498 57.69995117 155.41113281 C48.27319618 149.89699979 38.8012354 144.46579776 29.31280518 139.05886841 C22.54074333 135.19906525 15.78018054 131.3237061 9.07495117 127.34863281 C1.80703025 123.04134247 -5.52377505 118.84612789 -12.86254883 114.66113281 C-25.3307484 107.55077833 -37.77099729 100.39324897 -50.19848633 93.21191406 C-54.55641551 90.6952891 -58.91730583 88.18381673 -63.27807617 85.67211914 C-67.57571453 83.19493243 -71.86985655 80.71171239 -76.16430664 78.22900391 C-79.54657909 76.27855 -82.93481978 74.33873424 -86.32348633 72.39941406 C-88.52414728 71.13273038 -90.72467314 69.86581197 -92.92504883 68.59863281 C-93.95259277 68.0139624 -94.98013672 67.42929199 -96.03881836 66.8269043 C-96.98096191 66.28235596 -97.92310547 65.73780762 -98.89379883 65.17675781 C-99.72331055 64.70141602 -100.55282227 64.22607422 -101.4074707 63.73632812 C-103.42504883 62.34863281 -103.42504883 62.34863281 -105.42504883 59.34863281 C-94.35829748 52.33670332 -82.9837198 45.85814901 -71.62423706 39.33602905 C-66.65913344 36.48504827 -61.70125836 33.62167108 -56.74414062 30.75683594 C-48.81198902 26.17324914 -40.87432258 21.59973769 -32.91723633 17.05957031 C-31.97619553 16.52253731 -31.97619553 16.52253731 -31.0161438 15.97465515 C-27.99087661 14.2486234 -24.9647458 12.5241319 -21.93725586 10.80200195 C-20.84010254 10.17672607 -19.74294922 9.5514502 -18.61254883 8.90722656 C-17.04053711 8.01753174 -17.04053711 8.01753174 -15.43676758 7.10986328 C-13.45184359 5.94909467 -11.49422449 4.74012709 -9.56958008 3.48193359 C-8.26053711 2.62897705 -8.26053711 2.62897705 -6.92504883 1.75878906 C-6.17223633 1.24582275 -5.41942383 0.73285645 -4.64379883 0.2043457 C-2.42504883 -0.65136719 -2.42504883 -0.65136719 0 0 Z " fill="#1D2B24" transform="translate(305.425048828125,469.6513671875)"/>
<path d="M0 0 C1.91184219 0.94283815 3.78610742 1.96362613 5.62890625 3.03515625 C7.2835791 3.98962646 7.2835791 3.98962646 8.97167969 4.96337891 C10.16866737 5.66300454 11.36560614 6.36271386 12.5625 7.0625 C13.81240217 7.78637602 15.06273542 8.50950816 16.31347656 9.23193359 C18.91455664 10.73499489 21.51374662 12.24125373 24.11181641 13.74951172 C27.80855773 15.89272192 31.51691357 18.01498969 35.23046875 20.12890625 C36.10471748 20.62661026 36.10471748 20.62661026 36.99662781 21.1343689 C38.16514001 21.79949593 39.33367322 22.46458606 40.50222778 23.12963867 C50.72551774 28.95183185 60.90888615 34.84050982 71.06347656 40.78173828 C78.35957504 45.04929041 85.67530765 49.28173291 93 53.5 C101.30817516 58.28465172 109.59998648 63.09573677 117.875 67.9375 C127.14324492 73.35831699 136.45464467 78.70059743 145.78341675 84.01620483 C155.01183201 89.27581099 164.20153815 94.59871783 173.36791992 99.96582031 C181.04455148 104.45623147 188.75708419 108.88119548 196.49194336 113.27050781 C197.71216187 113.96418457 197.71216187 113.96418457 198.95703125 114.671875 C199.66835205 115.0750293 200.37967285 115.47818359 201.11254883 115.89355469 C202.77787749 116.86978926 204.39382965 117.92921977 206 119 C206 119.66 206 120.32 206 121 C205.2879541 121.40613525 204.5759082 121.81227051 203.84228516 122.23071289 C187.61521636 131.48867994 171.41099509 140.7847018 155.23535156 150.13232422 C151.94776071 152.03015625 148.65781144 153.92383871 145.3671875 155.81640625 C144.27132324 156.44732178 143.17545898 157.0782373 142.04638672 157.72827148 C139.86937807 158.98091407 137.69133667 160.23176369 135.51220703 161.48071289 C130.19168869 164.53962528 124.9123731 167.64724544 119.6875 170.8671875 C118.6862207 171.47868652 117.68494141 172.09018555 116.65332031 172.72021484 C114.76879641 173.87546032 112.89253357 175.04433285 111.02636719 176.22900391 C104.91746623 179.95935276 104.91746623 179.95935276 100.9140625 180.13671875 C96.89436355 178.56871286 93.31085029 176.54446336 89.625 174.3125 C87.9206384 173.30327481 86.21620809 172.29416568 84.51171875 171.28515625 C83.61372559 170.74906738 82.71573242 170.21297852 81.79052734 169.66064453 C77.02510096 166.82473637 72.22952871 164.04063352 67.4375 161.25 C66.43332031 160.66379883 65.42914062 160.07759766 64.39453125 159.47363281 C53.71340373 153.23960353 42.998687 147.06413824 32.28222656 140.89111328 C26.85340058 137.76319852 21.42680719 134.63141552 16 131.5 C13.83334417 130.24998121 11.6666775 128.99998122 9.5 127.75 C-3.5 120.25 -16.5 112.75 -29.5 105.25 C-30.57266113 104.63116943 -31.64532227 104.01233887 -32.75048828 103.37475586 C-34.91557071 102.12564482 -37.08060982 100.87645871 -39.24560547 99.62719727 C-44.68615706 96.48797691 -50.12747216 93.35009437 -55.5703125 90.21484375 C-66.43393822 83.9556259 -77.28971133 77.68317015 -88.125 71.375 C-89.10227051 70.8070874 -90.07954102 70.2391748 -91.08642578 69.65405273 C-96.45130921 66.52570836 -101.75236552 63.32144394 -107 60 C-105.69204145 56.07612434 -104.2626032 55.7265064 -100.69140625 53.734375 C-99.56524902 53.09943115 -98.4390918 52.4644873 -97.27880859 51.81030273 C-96.04005672 51.12350331 -94.8012867 50.4367366 -93.5625 49.75 C-92.28668728 49.03367412 -91.01146657 48.31629291 -89.73681641 47.59790039 C-87.1093667 46.11756612 -84.47988874 44.64093264 -81.84912109 43.16650391 C-76.16255734 39.97305455 -70.51909276 36.70524674 -64.875 33.4375 C-62.73314949 32.20038826 -60.59122224 30.96340936 -58.44921875 29.7265625 C-56.29946681 28.48439639 -54.14972734 27.24220869 -52 26 C-49.77740609 24.71603791 -47.55474938 23.43218453 -45.33203125 22.1484375 C-44.23093018 21.51236572 -43.1298291 20.87629395 -41.99536133 20.22094727 C-39.81272018 18.96168785 -37.62898523 17.70432211 -35.4440918 16.44897461 C-30.23218574 13.45361256 -25.03742913 10.43544058 -19.875 7.35546875 C-18.91376221 6.78852295 -17.95252441 6.22157715 -16.9621582 5.63745117 C-15.16205154 4.57512689 -13.36844147 3.5016863 -11.58276367 2.4152832 C-10.78588135 1.94823975 -9.98899902 1.48119629 -9.16796875 1 C-8.47985107 0.5875 -7.7917334 0.175 -7.08276367 -0.25 C-4.28181369 -1.25861779 -2.82887343 -0.88938672 0 0 Z " fill="#1F2F27" transform="translate(518,349)"/>
<path d="M0 0 C1.65 0.33 3.3 0.66 5 1 C5 41.92 5 82.84 5 125 C3.02 125 1.04 125 -1 125 C-1.66 123.68 -2.32 122.36 -3 121 C-0.69 121.99 1.62 122.98 4 124 C4 83.74 4 43.48 4 2 C2.68 1.67 1.36 1.34 0 1 C0 0.67 0 0.34 0 0 Z " fill="#45705E" transform="translate(1038,527)"/>
<path d="M0 0 C0 0.66 0 1.32 0 2 C-2.5 3.625 -2.5 3.625 -5 5 C-4.67 6.65 -4.34 8.3 -4 10 C-6.475 9.01 -6.475 9.01 -9 8 C-9 6.68 -9 5.36 -9 4 C-2.25 0 -2.25 0 0 0 Z " fill="#3F4643" transform="translate(421,402)"/>
<path d="M0 0 C4.75 1.875 4.75 1.875 7 3 C6.67 3.99 6.34 4.98 6 6 C3.4375 7.1875 3.4375 7.1875 1 8 C1.020625 7.236875 1.04125 6.47375 1.0625 5.6875 C1.12942841 2.89814214 1.12942841 2.89814214 0 0 Z " fill="#394640" transform="translate(717,708)"/>
<path d="M0 0 C-5.94 3.465 -5.94 3.465 -12 7 C-12.33 6.34 -12.66 5.68 -13 5 C-10 3 -10 3 -7 3 C-7 2.01 -7 1.02 -7 0 C-3.98968256 -0.93423645 -3.13349732 -1.04449911 0 0 Z " fill="#3C4B45" transform="translate(758,450)"/>
<path d="M0 0 C1.65 0 3.3 0 5 0 C0.98745115 3.51098025 -3.20983041 5.76537994 -8 8 C-8 7.34 -8 6.68 -8 6 C-7.34 6 -6.68 6 -6 6 C-5.67 5.01 -5.34 4.02 -5 3 C-3.68 3 -2.36 3 -1 3 C-0.67 2.01 -0.34 1.02 0 0 Z " fill="#3B4E46" transform="translate(781,433)"/>
<path d="M0 0 C0.66 0.33 1.32 0.66 2 1 C-0.37417093 3.62408366 -2.84911879 5.38613402 -6 7 C-7.32 7 -8.64 7 -10 7 C-6.81404865 4.36021174 -3.69029454 1.89501612 0 0 Z " fill="#41584E" transform="translate(861,755)"/>
<path d="M0 0 C-1 3 -1 3 -4 5 C-4.99 5 -5.98 5 -7 5 C-7.33 5.66 -7.66 6.32 -8 7 C-8.66 6.34 -9.32 5.68 -10 5 C-8.71186658 4.16121545 -7.41936744 3.32913217 -6.125 2.5 C-5.40570312 2.0359375 -4.68640625 1.571875 -3.9453125 1.09375 C-2 0 -2 0 0 0 Z " fill="#4A5952" transform="translate(826,533)"/>
<path d="M0 0 C1.65 0 3.3 0 5 0 C5.66 1.32 6.32 2.64 7 4 C7.99 4 8.98 4 10 4 C10 4.66 10 5.32 10 6 C6.40992874 4.66654496 3.20429093 3.1056769 0 1 C0 0.67 0 0.34 0 0 Z " fill="#4D635A" transform="translate(901,691)"/>
<path d="M0 0 C0 0.99 0 1.98 0 3 C0.99 3 1.98 3 3 3 C3.33 3.99 3.66 4.98 4 6 C0.22454612 4.90931332 -2.47043472 4.0916909 -5 1 C-2 0 -2 0 0 0 Z " fill="#496A5C" transform="translate(991,496)"/>
<path d="M0 0 C2.31 0 4.62 0 7 0 C7 1.32 7 2.64 7 4 C4.08482708 2.92598892 2.22189824 2.22189824 0 0 Z " fill="#49534F" transform="translate(734,595)"/>
<path d="M0 0 C0.66 0.33 1.32 0.66 2 1 C0.25 4.875 0.25 4.875 -2 6 C-2.99 5.01 -3.98 4.02 -5 3 C-2.625 1.4375 -2.625 1.4375 0 0 Z " fill="#4A5852" transform="translate(731,587)"/>
</svg>
